<svg id="Ebene_1" data-name="Ebene 1" xmlns="http://www.w3.org/2000/svg" xmlns:xlink="http://www.w3.org/1999/xlink" viewBox="0 0 746.73 221.57"><defs><style>.cls-1,.cls-2,.cls-4{fill:none;}.cls-1,.cls-2,.cls-3,.cls-4{stroke-linecap:round;stroke-miterlimit:10;}.cls-1,.cls-2,.cls-3{stroke-width:20px;}.cls-1{stroke:url(#Unbenannter_Verlauf_3);}.cls-2{stroke:url(#Unbenannter_Verlauf_2);}.cls-3,.cls-5{fill:#9ad5f9;}.cls-3{stroke:#9ad5f9;}.cls-4{stroke:#ff6b94;stroke-width:15px;}.cls-5{font-size:135.65px;font-family:ArialRoundedMTBold, Arial Rounded MT Bold;}.cls-6{letter-spacing:-0.01em;}.cls-7{letter-spacing:0em;}</style><linearGradient id="Unbenannter_Verlauf_3" x1="18.68" y1="116.98" x2="213.22" y2="116.98" gradientTransform="matrix(-0.68, -0.73, -0.73, 0.68, 294.63, 121.36)" gradientUnits="userSpaceOnUse"><stop offset="0" stop-color="#9ad5f9"/><stop offset="0.05" stop-color="#95ccf8"/><stop offset="0.13" stop-color="#87b2f6"/><stop offset="0.23" stop-color="#7089f3"/><stop offset="0.33" stop-color="#575df0"/><stop offset="0.66" stop-color="#ab6bff"/><stop offset="0.99" stop-color="#ff6b94"/></linearGradient><linearGradient id="Unbenannter_Verlauf_2" x1="119.7" y1="129.86" x2="156.32" y2="112.79" gradientTransform="matrix(1, 0, 0, -1, -9, 243)" gradientUnits="userSpaceOnUse"><stop offset="0.08" stop-color="#575df0"/><stop offset="0.44" stop-color="#ab6bff"/><stop offset="0.99" stop-color="#ff6b94"/></linearGradient></defs><path class="cls-1" d="M139.68,227.57A100.79,100.79,0,1,1,240,124.21" transform="translate(-28.45 -16)"/><path class="cls-2" d="M140.16,82.84l-.88,38.78a10.57,10.57,0,0,1-4.21,8.28L102.9,153.53" transform="translate(-28.45 -16)"/><path class="cls-3" d="M188.4,143.5v67.59" transform="translate(-28.45 -16)"/><path class="cls-3" d="M161.46,177.3" transform="translate(-28.45 -16)"/><path class="cls-3" d="M188.4,177.3" transform="translate(-28.45 -16)"/><path class="cls-3" d="M155,176.94h67.59" transform="translate(-28.45 -16)"/><path class="cls-4" d="M240,125.57" transform="translate(-28.45 -16)"/><text class="cls-5" transform="translate(242.53 160.49)">In<tspan class="cls-6" x="124.39" y="0">T</tspan><tspan class="cls-7" x="207.39" y="0">imer</tspan></text></svg>